<svg width="6" height="9" viewBox="0 0 6 9" fill="none" xmlns="http://www.w3.org/2000/svg">
<path d="M1.35355 0.146447C1.15829 -0.0488155 0.841709 -0.0488155 0.646447 0.146447C0.451184 0.341709 0.451184 0.658291 0.646447 0.853553L1.35355 0.146447ZM5 4.5L5.35355 4.85355C5.54882 4.65829 5.54882 4.34171 5.35355 4.14645L5 4.5ZM0.646447 8.14645C0.451184 8.34171 0.451184 8.65829 0.646447 8.85355C0.841709 9.04882 1.15829 9.04882 1.35355 8.85355L0.646447 8.14645ZM0.646447 0.853553L4.64645 4.85355L5.35355 4.14645L1.35355 0.146447L0.646447 0.853553ZM4.64645 4.14645L0.646447 8.14645L1.35355 8.85355L5.35355 4.85355L4.64645 4.14645Z" fill="black"/>
</svg>
